<svg xmlns="http://www.w3.org/2000/svg" xmlns:xlink="http://www.w3.org/1999/xlink" width="1000" zoomAndPan="magnify" viewBox="0 0 750 749.999995" height="1000" preserveAspectRatio="xMidYMid meet" version="1.0"><defs><clipPath id="2b17829d1d"><path d="M 78.199219 65 L 671.449219 65 L 671.449219 684 L 78.199219 684 Z M 78.199219 65 " clip-rule="nonzero"/></clipPath><clipPath id="25c0a01c0c"><path d="M 0.539062 2 L 593.449219 2 L 593.449219 618 L 0.539062 618 Z M 0.539062 2 " clip-rule="nonzero"/></clipPath><clipPath id="cbf6d4e3ac"><rect x="0" width="594" y="0" height="619"/></clipPath></defs><g clip-path="url(#2b17829d1d)"><g transform="matrix(1, 0, 0, 1, 78, 65)"><g clip-path="url(#cbf6d4e3ac)"><g clip-path="url(#25c0a01c0c)"><path fill="#445d57" d="M 51.5 131.496094 L 266.082031 10.382812 C 285.285156 -0.378906 308.707031 -0.378906 327.90625 10.382812 L 542.703125 131.496094 C 574.140625 149.21875 593.550781 182.554688 593.550781 218.636719 L 593.550781 463.816406 L 504.933594 513.820312 L 504.933594 253.238281 C 504.933594 227.496094 491.007812 203.867188 468.640625 191.207031 L 297.101562 94.570312 L 257.011719 117.144531 L 170.925781 165.675781 L 132.523438 187.410156 L 296.890625 283.203125 C 323.476562 298.605469 339.722656 327.089844 339.722656 357.683594 L 339.722656 505.59375 L 339.933594 505.59375 L 339.933594 607.292969 L 336.136719 608.980469 C 311.449219 620.375 282.964844 620.375 258.066406 608.980469 C 255.746094 607.925781 253.425781 606.660156 251.101562 605.394531 L 51.289062 492.722656 C 19.851562 474.996094 0.4375 441.871094 0.4375 405.789062 L 0.4375 218.847656 C 0.648438 182.554688 20.0625 149.21875 51.5 131.496094 M 89.269531 395.03125 C 89.269531 405.789062 94.964844 415.496094 104.25 420.769531 L 254.269531 505.382812 L 254.269531 397.984375 C 254.269531 372.664062 240.765625 349.242188 218.820312 336.371094 L 102.140625 268.429688 C 96.230469 265.054688 89.058594 269.273438 89.058594 276.027344 Z M 89.269531 395.03125 " fill-opacity="1" fill-rule="nonzero"/></g><path fill="#3dca8d" d="M 419.691406 211.882812 C 446.277344 227.496094 462.734375 255.984375 462.734375 286.789062 L 462.734375 436.175781 L 462.945312 436.175781 L 462.945312 537.664062 L 377.492188 585.980469 L 377.492188 326.878906 C 377.492188 301.558594 363.988281 278.136719 342.042969 265.265625 L 170.925781 165.675781 L 257.011719 117.144531 Z M 419.691406 211.882812 " fill-opacity="1" fill-rule="nonzero"/></g></g></g></svg>