<svg xmlns="http://www.w3.org/2000/svg" xmlns:xlink="http://www.w3.org/1999/xlink" width="2000" zoomAndPan="magnify" viewBox="0 0 1500 769.499972" height="1026" preserveAspectRatio="xMidYMid meet" version="1.0"><defs><g/><clipPath id="0ded6881db"><path d="M 502.089844 0 L 998 0 L 998 518 L 502.089844 518 Z M 502.089844 0 " clip-rule="nonzero"/></clipPath><clipPath id="11416c9a30"><path d="M 0.0898438 2 L 496 2 L 496 517 L 0.0898438 517 Z M 0.0898438 2 " clip-rule="nonzero"/></clipPath><clipPath id="63420973b4"><rect x="0" width="496" y="0" height="518"/></clipPath><clipPath id="d12bf9eedd"><path d="M 0.488281 525 L 1490 525 L 1490 762 L 0.488281 762 Z M 0.488281 525 " clip-rule="nonzero"/></clipPath><clipPath id="43fe852edb"><rect x="0" width="1490" y="0" height="237"/></clipPath></defs><g clip-path="url(#0ded6881db)"><g transform="matrix(1, 0, 0, 1, 502, 0)"><g clip-path="url(#63420973b4)"><g clip-path="url(#11416c9a30)"><path fill="#445d57" d="M 42.960938 110.191406 L 222.265625 8.992188 C 238.3125 0 257.882812 0 273.925781 8.992188 L 453.40625 110.191406 C 479.675781 125.003906 495.898438 152.859375 495.898438 183.007812 L 495.898438 387.878906 L 421.847656 429.664062 L 421.847656 211.921875 C 421.847656 190.414062 410.210938 170.667969 391.523438 160.085938 L 248.183594 79.339844 L 214.683594 98.203125 L 142.75 138.753906 L 110.664062 156.914062 L 248.007812 236.957031 C 270.222656 249.828125 283.796875 273.628906 283.796875 299.195312 L 283.796875 422.785156 L 283.972656 422.785156 L 283.972656 507.765625 L 280.800781 509.175781 C 260.171875 518.699219 236.371094 518.699219 215.566406 509.175781 C 213.628906 508.296875 211.6875 507.238281 209.75 506.179688 L 42.785156 412.03125 C 16.515625 397.222656 0.296875 369.542969 0.296875 339.394531 L 0.296875 183.183594 C 0.472656 152.859375 16.691406 125.003906 42.960938 110.191406 M 74.519531 330.402344 C 74.519531 339.394531 79.28125 347.503906 87.039062 351.910156 L 212.394531 422.609375 L 212.394531 332.871094 C 212.394531 311.710938 201.109375 292.140625 182.773438 281.386719 L 85.277344 224.617188 C 80.339844 221.796875 74.34375 225.320312 74.34375 230.964844 Z M 74.519531 330.402344 " fill-opacity="1" fill-rule="nonzero"/></g><path fill="#3dca8d" d="M 350.617188 177.367188 C 372.832031 190.414062 386.585938 214.214844 386.585938 239.957031 L 386.585938 364.78125 L 386.761719 364.78125 L 386.761719 449.585938 L 315.355469 489.960938 L 315.355469 273.453125 C 315.355469 252.296875 304.074219 232.726562 285.738281 221.972656 L 142.75 138.753906 L 214.683594 98.203125 Z M 350.617188 177.367188 " fill-opacity="1" fill-rule="nonzero"/></g></g></g><g clip-path="url(#d12bf9eedd)"><g transform="matrix(1, 0, 0, 1, 0.000000000000000056, 525)"><g clip-path="url(#43fe852edb)"><g fill="#222222" fill-opacity="1"><g transform="translate(0.926144, 185.511748)"><g><path d="M 19.03125 -30.53125 L 19.03125 -40.15625 C 19.03125 -40.851562 19.34375 -41.515625 19.96875 -42.140625 C 20.59375 -42.765625 21.253906 -43.078125 21.953125 -43.078125 L 32 -43.078125 C 32.832031 -43.078125 33.523438 -42.765625 34.078125 -42.140625 C 34.640625 -41.515625 34.921875 -40.851562 34.921875 -40.15625 L 34.921875 -30.53125 C 34.921875 -26.488281 36.347656 -23.035156 39.203125 -20.171875 C 42.066406 -17.316406 45.519531 -15.890625 49.5625 -15.890625 L 96.203125 -15.890625 C 100.242188 -15.890625 103.691406 -17.316406 106.546875 -20.171875 C 109.410156 -23.035156 110.84375 -26.488281 110.84375 -30.53125 L 110.84375 -49.140625 C 110.84375 -53.179688 109.410156 -56.628906 106.546875 -59.484375 C 103.691406 -62.347656 100.242188 -63.78125 96.203125 -63.78125 L 49.5625 -63.78125 C 45.375 -63.78125 41.429688 -64.582031 37.734375 -66.1875 C 34.046875 -67.789062 30.804688 -69.953125 28.015625 -72.671875 C 25.234375 -75.390625 23.039062 -78.628906 21.4375 -82.390625 C 19.832031 -86.160156 19.03125 -90.132812 19.03125 -94.3125 L 19.03125 -112.921875 C 19.03125 -117.109375 19.832031 -121.046875 21.4375 -124.734375 C 23.039062 -128.429688 25.234375 -131.675781 28.015625 -134.46875 C 30.804688 -137.257812 34.046875 -139.453125 37.734375 -141.046875 C 41.429688 -142.648438 45.375 -143.453125 49.5625 -143.453125 L 96.203125 -143.453125 C 100.378906 -143.453125 104.316406 -142.648438 108.015625 -141.046875 C 111.710938 -139.453125 114.953125 -137.257812 117.734375 -134.46875 C 120.523438 -131.675781 122.722656 -128.429688 124.328125 -124.734375 C 125.929688 -121.046875 126.734375 -117.109375 126.734375 -112.921875 L 126.734375 -103.3125 C 126.734375 -101.351562 125.753906 -100.375 123.796875 -100.375 L 113.765625 -100.375 C 111.816406 -100.375 110.84375 -101.351562 110.84375 -103.3125 L 110.84375 -112.921875 C 110.84375 -116.960938 109.410156 -120.410156 106.546875 -123.265625 C 103.691406 -126.128906 100.242188 -127.5625 96.203125 -127.5625 L 49.5625 -127.5625 C 45.519531 -127.5625 42.066406 -126.128906 39.203125 -123.265625 C 36.347656 -120.410156 34.921875 -116.960938 34.921875 -112.921875 L 34.921875 -94.3125 C 34.921875 -90.269531 36.347656 -86.816406 39.203125 -83.953125 C 42.066406 -81.097656 45.519531 -79.671875 49.5625 -79.671875 L 96.203125 -79.671875 C 100.378906 -79.671875 104.316406 -78.867188 108.015625 -77.265625 C 111.710938 -75.660156 114.953125 -73.460938 117.734375 -70.671875 C 120.523438 -67.890625 122.722656 -64.648438 124.328125 -60.953125 C 125.929688 -57.265625 126.734375 -53.328125 126.734375 -49.140625 L 126.734375 -30.53125 C 126.734375 -26.351562 125.929688 -22.378906 124.328125 -18.609375 C 122.722656 -14.847656 120.523438 -11.609375 117.734375 -8.890625 C 114.953125 -6.171875 111.710938 -4.007812 108.015625 -2.40625 C 104.316406 -0.800781 100.378906 0 96.203125 0 L 49.5625 0 C 45.375 0 41.429688 -0.800781 37.734375 -2.40625 C 34.046875 -4.007812 30.804688 -6.171875 28.015625 -8.890625 C 25.234375 -11.609375 23.039062 -14.847656 21.4375 -18.609375 C 19.832031 -22.378906 19.03125 -26.351562 19.03125 -30.53125 Z M 19.03125 -30.53125 "/></g></g></g><g fill="#222222" fill-opacity="1"><g transform="translate(136.22366, 185.511748)"><g><path d="M 22.375 -2.921875 L 22.375 -140.53125 C 22.375 -142.476562 23.347656 -143.453125 25.296875 -143.453125 L 122.75 -143.453125 C 124.707031 -143.453125 125.6875 -142.476562 125.6875 -140.53125 L 125.6875 -130.5 C 125.6875 -128.539062 124.707031 -127.5625 122.75 -127.5625 L 38.0625 -127.5625 L 38.0625 -79.671875 L 111.46875 -79.671875 C 112.164062 -79.671875 112.828125 -79.359375 113.453125 -78.734375 C 114.078125 -78.109375 114.390625 -77.445312 114.390625 -76.75 L 114.390625 -66.703125 C 114.390625 -65.867188 114.078125 -65.171875 113.453125 -64.609375 C 112.828125 -64.054688 112.164062 -63.78125 111.46875 -63.78125 L 38.0625 -63.78125 L 38.0625 -15.890625 L 122.75 -15.890625 C 123.59375 -15.890625 124.289062 -15.578125 124.84375 -14.953125 C 125.40625 -14.328125 125.6875 -13.664062 125.6875 -12.96875 L 125.6875 -2.921875 C 125.6875 -0.972656 124.707031 0 122.75 0 L 25.296875 0 C 23.347656 0 22.375 -0.972656 22.375 -2.921875 Z M 22.375 -2.921875 "/></g></g></g><g fill="#222222" fill-opacity="1"><g transform="translate(271.31207, 185.511748)"><g><path d="M 126.734375 -103.3125 C 126.734375 -101.351562 125.753906 -100.375 123.796875 -100.375 L 113.765625 -100.375 C 111.816406 -100.375 110.84375 -101.351562 110.84375 -103.3125 L 110.84375 -113.140625 C 110.695312 -117.179688 109.226562 -120.59375 106.4375 -123.375 C 103.65625 -126.164062 100.242188 -127.5625 96.203125 -127.5625 L 49.5625 -127.5625 C 45.519531 -127.5625 42.066406 -126.128906 39.203125 -123.265625 C 36.347656 -120.410156 34.921875 -116.960938 34.921875 -112.921875 L 34.921875 -30.53125 C 34.921875 -26.488281 36.347656 -23.035156 39.203125 -20.171875 C 42.066406 -17.316406 45.519531 -15.890625 49.5625 -15.890625 L 96.203125 -15.890625 C 100.242188 -15.890625 103.65625 -17.25 106.4375 -19.96875 C 109.226562 -22.6875 110.695312 -26.066406 110.84375 -30.109375 L 110.84375 -40.15625 C 110.84375 -40.851562 111.117188 -41.515625 111.671875 -42.140625 C 112.234375 -42.765625 112.929688 -43.078125 113.765625 -43.078125 L 123.796875 -43.078125 C 124.640625 -43.078125 125.335938 -42.765625 125.890625 -42.140625 C 126.453125 -41.515625 126.734375 -40.851562 126.734375 -40.15625 L 126.734375 -30.109375 C 126.734375 -25.929688 125.894531 -22.03125 124.21875 -18.40625 C 122.539062 -14.78125 120.34375 -11.609375 117.625 -8.890625 C 114.914062 -6.171875 111.710938 -4.007812 108.015625 -2.40625 C 104.316406 -0.800781 100.378906 0 96.203125 0 L 49.5625 0 C 45.375 0 41.429688 -0.800781 37.734375 -2.40625 C 34.046875 -4.007812 30.84375 -6.171875 28.125 -8.890625 C 25.40625 -11.609375 23.242188 -14.847656 21.640625 -18.609375 C 20.035156 -22.378906 19.234375 -26.351562 19.234375 -30.53125 L 19.234375 -112.921875 C 19.234375 -117.109375 20.035156 -121.046875 21.640625 -124.734375 C 23.242188 -128.429688 25.40625 -131.675781 28.125 -134.46875 C 30.84375 -137.257812 34.046875 -139.453125 37.734375 -141.046875 C 41.429688 -142.648438 45.375 -143.453125 49.5625 -143.453125 L 96.203125 -143.453125 C 100.378906 -143.453125 104.316406 -142.648438 108.015625 -141.046875 C 111.710938 -139.453125 114.914062 -137.296875 117.625 -134.578125 C 120.34375 -131.859375 122.539062 -128.648438 124.21875 -124.953125 C 125.894531 -121.253906 126.734375 -117.316406 126.734375 -113.140625 Z M 126.734375 -103.3125 "/></g></g></g><g fill="#222222" fill-opacity="1"><g transform="translate(406.609585, 185.511748)"><g><path d="M 19.03125 -30.53125 L 19.03125 -140.53125 C 19.03125 -141.363281 19.34375 -142.054688 19.96875 -142.609375 C 20.59375 -143.171875 21.253906 -143.453125 21.953125 -143.453125 L 32 -143.453125 C 33.945312 -143.453125 34.921875 -142.476562 34.921875 -140.53125 L 34.921875 -30.53125 C 34.921875 -26.488281 36.347656 -23.035156 39.203125 -20.171875 C 42.066406 -17.316406 45.519531 -15.890625 49.5625 -15.890625 L 96.203125 -15.890625 C 100.242188 -15.890625 103.691406 -17.316406 106.546875 -20.171875 C 109.410156 -23.035156 110.84375 -26.488281 110.84375 -30.53125 L 110.84375 -140.53125 C 110.84375 -142.476562 111.816406 -143.453125 113.765625 -143.453125 L 123.796875 -143.453125 C 125.753906 -143.453125 126.734375 -142.476562 126.734375 -140.53125 L 126.734375 -30.53125 C 126.734375 -26.351562 125.929688 -22.378906 124.328125 -18.609375 C 122.722656 -14.847656 120.523438 -11.609375 117.734375 -8.890625 C 114.953125 -6.171875 111.710938 -4.007812 108.015625 -2.40625 C 104.316406 -0.800781 100.378906 0 96.203125 0 L 49.5625 0 C 45.375 0 41.429688 -0.800781 37.734375 -2.40625 C 34.046875 -4.007812 30.804688 -6.171875 28.015625 -8.890625 C 25.234375 -11.609375 23.039062 -14.847656 21.4375 -18.609375 C 19.832031 -22.378906 19.03125 -26.351562 19.03125 -30.53125 Z M 19.03125 -30.53125 "/></g></g></g><g fill="#222222" fill-opacity="1"><g transform="translate(541.9071, 185.511748)"><g><path d="M 108.53125 -33.875 L 72.984375 -62.734375 L 37.21875 -33.875 C 35.6875 -32.625 34.921875 -31.019531 34.921875 -29.0625 L 34.921875 -2.921875 C 34.921875 -0.972656 33.945312 0 32 0 L 21.953125 0 C 21.253906 0 20.59375 -0.273438 19.96875 -0.828125 C 19.34375 -1.390625 19.03125 -2.085938 19.03125 -2.921875 L 19.03125 -36.390625 C 19.03125 -37.085938 19.238281 -37.921875 19.65625 -38.890625 C 20.070312 -39.867188 20.628906 -40.566406 21.328125 -40.984375 L 59.1875 -71.734375 L 21.328125 -102.265625 C 19.796875 -103.515625 19.03125 -105.117188 19.03125 -107.078125 L 19.03125 -140.53125 C 19.03125 -141.226562 19.34375 -141.890625 19.96875 -142.515625 C 20.59375 -143.140625 21.253906 -143.453125 21.953125 -143.453125 L 32 -143.453125 C 32.832031 -143.453125 33.523438 -143.140625 34.078125 -142.515625 C 34.640625 -141.890625 34.921875 -141.226562 34.921875 -140.53125 L 34.921875 -114.1875 C 34.921875 -113.488281 35.128906 -112.648438 35.546875 -111.671875 C 35.960938 -110.691406 36.519531 -109.992188 37.21875 -109.578125 L 72.984375 -80.71875 L 108.53125 -109.578125 C 109.226562 -109.992188 109.785156 -110.691406 110.203125 -111.671875 C 110.628906 -112.648438 110.84375 -113.488281 110.84375 -114.1875 L 110.84375 -140.53125 C 110.84375 -141.226562 111.117188 -141.890625 111.671875 -142.515625 C 112.234375 -143.140625 112.929688 -143.453125 113.765625 -143.453125 L 123.796875 -143.453125 C 124.640625 -143.453125 125.335938 -143.140625 125.890625 -142.515625 C 126.453125 -141.890625 126.734375 -141.226562 126.734375 -140.53125 L 126.734375 -107.078125 C 126.734375 -105.117188 125.960938 -103.515625 124.421875 -102.265625 L 86.78125 -71.734375 L 124.421875 -40.984375 C 125.117188 -40.566406 125.675781 -39.867188 126.09375 -38.890625 C 126.519531 -37.921875 126.734375 -37.085938 126.734375 -36.390625 L 126.734375 -2.921875 C 126.734375 -0.972656 125.753906 0 123.796875 0 L 113.765625 0 C 111.816406 0 110.84375 -0.972656 110.84375 -2.921875 L 110.84375 -29.0625 C 110.84375 -31.019531 110.070312 -32.625 108.53125 -33.875 Z M 108.53125 -33.875 "/></g></g></g><g fill="#222222" fill-opacity="1"><g transform="translate(677.204645, 185.511748)"><g/></g></g><g fill="#222222" fill-opacity="1"><g transform="translate(812.293025, 185.511748)"><g><path d="M 27.609375 -143.453125 L 37.640625 -143.453125 C 39.585938 -143.453125 40.5625 -142.476562 40.5625 -140.53125 L 40.5625 -15.890625 L 122.34375 -15.890625 C 123.175781 -15.890625 123.867188 -15.578125 124.421875 -14.953125 C 124.984375 -14.328125 125.265625 -13.664062 125.265625 -12.96875 L 125.265625 -2.921875 C 125.265625 -0.972656 124.289062 0 122.34375 0 L 27.609375 0 C 26.910156 0 26.242188 -0.273438 25.609375 -0.828125 C 24.984375 -1.390625 24.671875 -2.085938 24.671875 -2.921875 L 24.671875 -140.53125 C 24.671875 -141.363281 24.984375 -142.054688 25.609375 -142.609375 C 26.242188 -143.171875 26.910156 -143.453125 27.609375 -143.453125 Z M 27.609375 -143.453125 "/></g></g></g><g fill="#222222" fill-opacity="1"><g transform="translate(947.590569, 185.511748)"><g><path d="M 21.953125 -2.921875 L 21.953125 -12.96875 C 21.953125 -13.664062 22.226562 -14.328125 22.78125 -14.953125 C 23.34375 -15.578125 24.046875 -15.890625 24.890625 -15.890625 L 65.03125 -15.890625 L 65.03125 -127.5625 L 24.890625 -127.5625 C 22.929688 -127.5625 21.953125 -128.539062 21.953125 -130.5 L 21.953125 -140.53125 C 21.953125 -142.476562 22.929688 -143.453125 24.890625 -143.453125 L 120.875 -143.453125 C 122.820312 -143.453125 123.796875 -142.476562 123.796875 -140.53125 L 123.796875 -130.5 C 123.796875 -128.539062 122.820312 -127.5625 120.875 -127.5625 L 80.9375 -127.5625 L 80.9375 -15.890625 L 120.875 -15.890625 C 121.707031 -15.890625 122.398438 -15.578125 122.953125 -14.953125 C 123.515625 -14.328125 123.796875 -13.664062 123.796875 -12.96875 L 123.796875 -2.921875 C 123.796875 -0.972656 122.820312 0 120.875 0 L 24.890625 0 C 22.929688 0 21.953125 -0.972656 21.953125 -2.921875 Z M 21.953125 -2.921875 "/></g></g></g><g fill="#222222" fill-opacity="1"><g transform="translate(1082.888054, 185.511748)"><g><path d="M 110.84375 -2.921875 L 110.84375 -62.953125 L 34.921875 -125.6875 L 34.921875 -2.921875 C 34.921875 -0.972656 33.945312 0 32 0 L 21.953125 0 C 21.253906 0 20.59375 -0.273438 19.96875 -0.828125 C 19.34375 -1.390625 19.03125 -2.085938 19.03125 -2.921875 L 19.03125 -140.53125 C 19.03125 -141.363281 19.34375 -142.054688 19.96875 -142.609375 C 20.59375 -143.171875 21.253906 -143.453125 21.953125 -143.453125 L 35.96875 -143.453125 C 37.914062 -143.453125 39.660156 -142.828125 41.203125 -141.578125 L 110.84375 -84.0625 L 110.84375 -140.53125 C 110.84375 -142.476562 111.816406 -143.453125 113.765625 -143.453125 L 123.796875 -143.453125 C 125.753906 -143.453125 126.734375 -142.476562 126.734375 -140.53125 L 126.734375 -2.921875 C 126.734375 -0.972656 125.753906 0 123.796875 0 L 113.765625 0 C 111.816406 0 110.84375 -0.972656 110.84375 -2.921875 Z M 110.84375 -2.921875 "/></g></g></g><g fill="#222222" fill-opacity="1"><g transform="translate(1218.185539, 185.511748)"><g><path d="M 19.03125 -30.53125 L 19.03125 -140.53125 C 19.03125 -141.363281 19.34375 -142.054688 19.96875 -142.609375 C 20.59375 -143.171875 21.253906 -143.453125 21.953125 -143.453125 L 32 -143.453125 C 33.945312 -143.453125 34.921875 -142.476562 34.921875 -140.53125 L 34.921875 -30.53125 C 34.921875 -26.488281 36.347656 -23.035156 39.203125 -20.171875 C 42.066406 -17.316406 45.519531 -15.890625 49.5625 -15.890625 L 96.203125 -15.890625 C 100.242188 -15.890625 103.691406 -17.316406 106.546875 -20.171875 C 109.410156 -23.035156 110.84375 -26.488281 110.84375 -30.53125 L 110.84375 -140.53125 C 110.84375 -142.476562 111.816406 -143.453125 113.765625 -143.453125 L 123.796875 -143.453125 C 125.753906 -143.453125 126.734375 -142.476562 126.734375 -140.53125 L 126.734375 -30.53125 C 126.734375 -26.351562 125.929688 -22.378906 124.328125 -18.609375 C 122.722656 -14.847656 120.523438 -11.609375 117.734375 -8.890625 C 114.953125 -6.171875 111.710938 -4.007812 108.015625 -2.40625 C 104.316406 -0.800781 100.378906 0 96.203125 0 L 49.5625 0 C 45.375 0 41.429688 -0.800781 37.734375 -2.40625 C 34.046875 -4.007812 30.804688 -6.171875 28.015625 -8.890625 C 25.234375 -11.609375 23.039062 -14.847656 21.4375 -18.609375 C 19.832031 -22.378906 19.03125 -26.351562 19.03125 -30.53125 Z M 19.03125 -30.53125 "/></g></g></g><g fill="#222222" fill-opacity="1"><g transform="translate(1353.483144, 185.511748)"><g><path d="M 108.53125 -33.875 L 72.984375 -62.734375 L 37.21875 -33.875 C 35.6875 -32.625 34.921875 -31.019531 34.921875 -29.0625 L 34.921875 -2.921875 C 34.921875 -0.972656 33.945312 0 32 0 L 21.953125 0 C 21.253906 0 20.59375 -0.273438 19.96875 -0.828125 C 19.34375 -1.390625 19.03125 -2.085938 19.03125 -2.921875 L 19.03125 -36.390625 C 19.03125 -37.085938 19.238281 -37.921875 19.65625 -38.890625 C 20.070312 -39.867188 20.628906 -40.566406 21.328125 -40.984375 L 59.1875 -71.734375 L 21.328125 -102.265625 C 19.796875 -103.515625 19.03125 -105.117188 19.03125 -107.078125 L 19.03125 -140.53125 C 19.03125 -141.226562 19.34375 -141.890625 19.96875 -142.515625 C 20.59375 -143.140625 21.253906 -143.453125 21.953125 -143.453125 L 32 -143.453125 C 32.832031 -143.453125 33.523438 -143.140625 34.078125 -142.515625 C 34.640625 -141.890625 34.921875 -141.226562 34.921875 -140.53125 L 34.921875 -114.1875 C 34.921875 -113.488281 35.128906 -112.648438 35.546875 -111.671875 C 35.960938 -110.691406 36.519531 -109.992188 37.21875 -109.578125 L 72.984375 -80.71875 L 108.53125 -109.578125 C 109.226562 -109.992188 109.785156 -110.691406 110.203125 -111.671875 C 110.628906 -112.648438 110.84375 -113.488281 110.84375 -114.1875 L 110.84375 -140.53125 C 110.84375 -141.226562 111.117188 -141.890625 111.671875 -142.515625 C 112.234375 -143.140625 112.929688 -143.453125 113.765625 -143.453125 L 123.796875 -143.453125 C 124.640625 -143.453125 125.335938 -143.140625 125.890625 -142.515625 C 126.453125 -141.890625 126.734375 -141.226562 126.734375 -140.53125 L 126.734375 -107.078125 C 126.734375 -105.117188 125.960938 -103.515625 124.421875 -102.265625 L 86.78125 -71.734375 L 124.421875 -40.984375 C 125.117188 -40.566406 125.675781 -39.867188 126.09375 -38.890625 C 126.519531 -37.921875 126.734375 -37.085938 126.734375 -36.390625 L 126.734375 -2.921875 C 126.734375 -0.972656 125.753906 0 123.796875 0 L 113.765625 0 C 111.816406 0 110.84375 -0.972656 110.84375 -2.921875 L 110.84375 -29.0625 C 110.84375 -31.019531 110.070312 -32.625 108.53125 -33.875 Z M 108.53125 -33.875 "/></g></g></g></g></g></g></svg>